<?xml version="1.0" encoding="utf-8" standalone="no"?>
<!DOCTYPE svg PUBLIC "-//W3C//DTD SVG 1.1//EN"
  "http://www.w3.org/Graphics/SVG/1.1/DTD/svg11.dtd">
<svg xmlns:xlink="http://www.w3.org/1999/xlink" width="598.855469pt" height="356.718125pt" viewBox="0 0 598.855469 356.718125" xmlns="http://www.w3.org/2000/svg" version="1.1">
 <metadata>
  <rdf:RDF xmlns:dc="http://purl.org/dc/elements/1.1/" xmlns:cc="http://creativecommons.org/ns#" xmlns:rdf="http://www.w3.org/1999/02/22-rdf-syntax-ns#">
   <cc:Work>
    <dc:type rdf:resource="http://purl.org/dc/dcmitype/StillImage"/>
    <dc:date>2026-05-11T14:43:48.093604</dc:date>
    <dc:format>image/svg+xml</dc:format>
    <dc:creator>
     <cc:Agent>
      <dc:title>Matplotlib v3.10.0, https://matplotlib.org/</dc:title>
     </cc:Agent>
    </dc:creator>
   </cc:Work>
  </rdf:RDF>
 </metadata>
 <defs>
  <style type="text/css">*{stroke-linejoin: round; stroke-linecap: butt}</style>
 </defs>
 <g id="figure_1">
  <g id="patch_1">
   <path d="M 0 356.718125 
L 598.855469 356.718125 
L 598.855469 0 
L 0 0 
L 0 356.718125 
z
" style="fill: none"/>
  </g>
  <g id="axes_1">
   <g id="patch_2">
    <path d="M 22.522656 343.639219 
L 580.522656 343.639219 
L 580.522656 10.999219 
L 22.522656 10.999219 
L 22.522656 343.639219 
z
" style="fill: none"/>
   </g>
   <g id="matplotlib.axis_1">
    <g id="xtick_1">
     <g id="line2d_1">
      <path d="M 22.522656 343.639219 
L 22.522656 10.999219 
" clip-path="url(#p711518ff32)" style="fill: none; stroke-dasharray: 0.8,1.32; stroke-dashoffset: 0; stroke: #334155; stroke-opacity: 0.5; stroke-width: 0.8"/>
     </g>
     <g id="line2d_2">
      <defs>
       <path id="m07ab42cb58" d="M 0 0 
L 0 3.5 
" style="stroke: #cbd5e1; stroke-width: 0.8"/>
      </defs>
      <g>
       <use xlink:href="#m07ab42cb58" x="22.522656" y="177.319219" style="fill: #cbd5e1; stroke: #cbd5e1; stroke-width: 0.8"/>
      </g>
     </g>
     <g id="text_1">
      <!-- −10.0 -->
      <g style="fill: #cbd5e1" transform="translate(7.2 191.917656) scale(0.1 -0.1)">
       <defs>
        <path id="DejaVuSans-2212" d="M 678 2272 
L 4684 2272 
L 4684 1741 
L 678 1741 
L 678 2272 
z
" transform="scale(0.015625)"/>
        <path id="DejaVuSans-31" d="M 794 531 
L 1825 531 
L 1825 4091 
L 703 3866 
L 703 4441 
L 1819 4666 
L 2450 4666 
L 2450 531 
L 3481 531 
L 3481 0 
L 794 0 
L 794 531 
z
" transform="scale(0.015625)"/>
        <path id="DejaVuSans-30" d="M 2034 4250 
Q 1547 4250 1301 3770 
Q 1056 3291 1056 2328 
Q 1056 1369 1301 889 
Q 1547 409 2034 409 
Q 2525 409 2770 889 
Q 3016 1369 3016 2328 
Q 3016 3291 2770 3770 
Q 2525 4250 2034 4250 
z
M 2034 4750 
Q 2819 4750 3233 4129 
Q 3647 3509 3647 2328 
Q 3647 1150 3233 529 
Q 2819 -91 2034 -91 
Q 1250 -91 836 529 
Q 422 1150 422 2328 
Q 422 3509 836 4129 
Q 1250 4750 2034 4750 
z
" transform="scale(0.015625)"/>
        <path id="DejaVuSans-2e" d="M 684 794 
L 1344 794 
L 1344 0 
L 684 0 
L 684 794 
z
" transform="scale(0.015625)"/>
       </defs>
       <use xlink:href="#DejaVuSans-2212"/>
       <use xlink:href="#DejaVuSans-31" transform="translate(83.789062 0)"/>
       <use xlink:href="#DejaVuSans-30" transform="translate(147.412109 0)"/>
       <use xlink:href="#DejaVuSans-2e" transform="translate(211.035156 0)"/>
       <use xlink:href="#DejaVuSans-30" transform="translate(242.822266 0)"/>
      </g>
     </g>
    </g>
    <g id="xtick_2">
     <g id="line2d_3">
      <path d="M 92.272656 343.639219 
L 92.272656 10.999219 
" clip-path="url(#p711518ff32)" style="fill: none; stroke-dasharray: 0.8,1.32; stroke-dashoffset: 0; stroke: #334155; stroke-opacity: 0.5; stroke-width: 0.8"/>
     </g>
     <g id="line2d_4">
      <g>
       <use xlink:href="#m07ab42cb58" x="92.272656" y="177.319219" style="fill: #cbd5e1; stroke: #cbd5e1; stroke-width: 0.8"/>
      </g>
     </g>
     <g id="text_2">
      <!-- −7.5 -->
      <g style="fill: #cbd5e1" transform="translate(80.13125 191.917656) scale(0.1 -0.1)">
       <defs>
        <path id="DejaVuSans-37" d="M 525 4666 
L 3525 4666 
L 3525 4397 
L 1831 0 
L 1172 0 
L 2766 4134 
L 525 4134 
L 525 4666 
z
" transform="scale(0.015625)"/>
        <path id="DejaVuSans-35" d="M 691 4666 
L 3169 4666 
L 3169 4134 
L 1269 4134 
L 1269 2991 
Q 1406 3038 1543 3061 
Q 1681 3084 1819 3084 
Q 2600 3084 3056 2656 
Q 3513 2228 3513 1497 
Q 3513 744 3044 326 
Q 2575 -91 1722 -91 
Q 1428 -91 1123 -41 
Q 819 9 494 109 
L 494 744 
Q 775 591 1075 516 
Q 1375 441 1709 441 
Q 2250 441 2565 725 
Q 2881 1009 2881 1497 
Q 2881 1984 2565 2268 
Q 2250 2553 1709 2553 
Q 1456 2553 1204 2497 
Q 953 2441 691 2322 
L 691 4666 
z
" transform="scale(0.015625)"/>
       </defs>
       <use xlink:href="#DejaVuSans-2212"/>
       <use xlink:href="#DejaVuSans-37" transform="translate(83.789062 0)"/>
       <use xlink:href="#DejaVuSans-2e" transform="translate(147.412109 0)"/>
       <use xlink:href="#DejaVuSans-35" transform="translate(179.199219 0)"/>
      </g>
     </g>
    </g>
    <g id="xtick_3">
     <g id="line2d_5">
      <path d="M 162.022656 343.639219 
L 162.022656 10.999219 
" clip-path="url(#p711518ff32)" style="fill: none; stroke-dasharray: 0.8,1.32; stroke-dashoffset: 0; stroke: #334155; stroke-opacity: 0.5; stroke-width: 0.8"/>
     </g>
     <g id="line2d_6">
      <g>
       <use xlink:href="#m07ab42cb58" x="162.022656" y="177.319219" style="fill: #cbd5e1; stroke: #cbd5e1; stroke-width: 0.8"/>
      </g>
     </g>
     <g id="text_3">
      <!-- −5.0 -->
      <g style="fill: #cbd5e1" transform="translate(149.88125 191.917656) scale(0.1 -0.1)">
       <use xlink:href="#DejaVuSans-2212"/>
       <use xlink:href="#DejaVuSans-35" transform="translate(83.789062 0)"/>
       <use xlink:href="#DejaVuSans-2e" transform="translate(147.412109 0)"/>
       <use xlink:href="#DejaVuSans-30" transform="translate(179.199219 0)"/>
      </g>
     </g>
    </g>
    <g id="xtick_4">
     <g id="line2d_7">
      <path d="M 231.772656 343.639219 
L 231.772656 10.999219 
" clip-path="url(#p711518ff32)" style="fill: none; stroke-dasharray: 0.8,1.32; stroke-dashoffset: 0; stroke: #334155; stroke-opacity: 0.5; stroke-width: 0.8"/>
     </g>
     <g id="line2d_8">
      <g>
       <use xlink:href="#m07ab42cb58" x="231.772656" y="177.319219" style="fill: #cbd5e1; stroke: #cbd5e1; stroke-width: 0.8"/>
      </g>
     </g>
     <g id="text_4">
      <!-- −2.5 -->
      <g style="fill: #cbd5e1" transform="translate(219.63125 191.917656) scale(0.1 -0.1)">
       <defs>
        <path id="DejaVuSans-32" d="M 1228 531 
L 3431 531 
L 3431 0 
L 469 0 
L 469 531 
Q 828 903 1448 1529 
Q 2069 2156 2228 2338 
Q 2531 2678 2651 2914 
Q 2772 3150 2772 3378 
Q 2772 3750 2511 3984 
Q 2250 4219 1831 4219 
Q 1534 4219 1204 4116 
Q 875 4013 500 3803 
L 500 4441 
Q 881 4594 1212 4672 
Q 1544 4750 1819 4750 
Q 2544 4750 2975 4387 
Q 3406 4025 3406 3419 
Q 3406 3131 3298 2873 
Q 3191 2616 2906 2266 
Q 2828 2175 2409 1742 
Q 1991 1309 1228 531 
z
" transform="scale(0.015625)"/>
       </defs>
       <use xlink:href="#DejaVuSans-2212"/>
       <use xlink:href="#DejaVuSans-32" transform="translate(83.789062 0)"/>
       <use xlink:href="#DejaVuSans-2e" transform="translate(147.412109 0)"/>
       <use xlink:href="#DejaVuSans-35" transform="translate(179.199219 0)"/>
      </g>
     </g>
    </g>
    <g id="xtick_5">
     <g id="line2d_9">
      <path d="M 301.522656 343.639219 
L 301.522656 10.999219 
" clip-path="url(#p711518ff32)" style="fill: none; stroke-dasharray: 0.8,1.32; stroke-dashoffset: 0; stroke: #334155; stroke-opacity: 0.5; stroke-width: 0.8"/>
     </g>
     <g id="line2d_10">
      <g>
       <use xlink:href="#m07ab42cb58" x="301.522656" y="177.319219" style="fill: #cbd5e1; stroke: #cbd5e1; stroke-width: 0.8"/>
      </g>
     </g>
     <g id="text_5">
      <!-- 0.0 -->
      <g style="fill: #cbd5e1" transform="translate(293.571094 191.917656) scale(0.1 -0.1)">
       <use xlink:href="#DejaVuSans-30"/>
       <use xlink:href="#DejaVuSans-2e" transform="translate(63.623047 0)"/>
       <use xlink:href="#DejaVuSans-30" transform="translate(95.410156 0)"/>
      </g>
     </g>
    </g>
    <g id="xtick_6">
     <g id="line2d_11">
      <path d="M 371.272656 343.639219 
L 371.272656 10.999219 
" clip-path="url(#p711518ff32)" style="fill: none; stroke-dasharray: 0.8,1.32; stroke-dashoffset: 0; stroke: #334155; stroke-opacity: 0.5; stroke-width: 0.8"/>
     </g>
     <g id="line2d_12">
      <g>
       <use xlink:href="#m07ab42cb58" x="371.272656" y="177.319219" style="fill: #cbd5e1; stroke: #cbd5e1; stroke-width: 0.8"/>
      </g>
     </g>
     <g id="text_6">
      <!-- 2.5 -->
      <g style="fill: #cbd5e1" transform="translate(363.321094 191.917656) scale(0.1 -0.1)">
       <use xlink:href="#DejaVuSans-32"/>
       <use xlink:href="#DejaVuSans-2e" transform="translate(63.623047 0)"/>
       <use xlink:href="#DejaVuSans-35" transform="translate(95.410156 0)"/>
      </g>
     </g>
    </g>
    <g id="xtick_7">
     <g id="line2d_13">
      <path d="M 441.022656 343.639219 
L 441.022656 10.999219 
" clip-path="url(#p711518ff32)" style="fill: none; stroke-dasharray: 0.8,1.32; stroke-dashoffset: 0; stroke: #334155; stroke-opacity: 0.5; stroke-width: 0.8"/>
     </g>
     <g id="line2d_14">
      <g>
       <use xlink:href="#m07ab42cb58" x="441.022656" y="177.319219" style="fill: #cbd5e1; stroke: #cbd5e1; stroke-width: 0.8"/>
      </g>
     </g>
     <g id="text_7">
      <!-- 5.0 -->
      <g style="fill: #cbd5e1" transform="translate(433.071094 191.917656) scale(0.1 -0.1)">
       <use xlink:href="#DejaVuSans-35"/>
       <use xlink:href="#DejaVuSans-2e" transform="translate(63.623047 0)"/>
       <use xlink:href="#DejaVuSans-30" transform="translate(95.410156 0)"/>
      </g>
     </g>
    </g>
    <g id="xtick_8">
     <g id="line2d_15">
      <path d="M 510.772656 343.639219 
L 510.772656 10.999219 
" clip-path="url(#p711518ff32)" style="fill: none; stroke-dasharray: 0.8,1.32; stroke-dashoffset: 0; stroke: #334155; stroke-opacity: 0.5; stroke-width: 0.8"/>
     </g>
     <g id="line2d_16">
      <g>
       <use xlink:href="#m07ab42cb58" x="510.772656" y="177.319219" style="fill: #cbd5e1; stroke: #cbd5e1; stroke-width: 0.8"/>
      </g>
     </g>
     <g id="text_8">
      <!-- 7.5 -->
      <g style="fill: #cbd5e1" transform="translate(502.821094 191.917656) scale(0.1 -0.1)">
       <use xlink:href="#DejaVuSans-37"/>
       <use xlink:href="#DejaVuSans-2e" transform="translate(63.623047 0)"/>
       <use xlink:href="#DejaVuSans-35" transform="translate(95.410156 0)"/>
      </g>
     </g>
    </g>
    <g id="xtick_9">
     <g id="line2d_17">
      <path d="M 580.522656 343.639219 
L 580.522656 10.999219 
" clip-path="url(#p711518ff32)" style="fill: none; stroke-dasharray: 0.8,1.32; stroke-dashoffset: 0; stroke: #334155; stroke-opacity: 0.5; stroke-width: 0.8"/>
     </g>
     <g id="line2d_18">
      <g>
       <use xlink:href="#m07ab42cb58" x="580.522656" y="177.319219" style="fill: #cbd5e1; stroke: #cbd5e1; stroke-width: 0.8"/>
      </g>
     </g>
     <g id="text_9">
      <!-- 10.0 -->
      <g style="fill: #cbd5e1" transform="translate(569.389844 191.917656) scale(0.1 -0.1)">
       <use xlink:href="#DejaVuSans-31"/>
       <use xlink:href="#DejaVuSans-30" transform="translate(63.623047 0)"/>
       <use xlink:href="#DejaVuSans-2e" transform="translate(127.246094 0)"/>
       <use xlink:href="#DejaVuSans-30" transform="translate(159.033203 0)"/>
      </g>
     </g>
    </g>
   </g>
   <g id="matplotlib.axis_2">
    <g id="ytick_1">
     <g id="line2d_19">
      <path d="M 22.522656 343.639219 
L 580.522656 343.639219 
" clip-path="url(#p711518ff32)" style="fill: none; stroke-dasharray: 0.8,1.32; stroke-dashoffset: 0; stroke: #334155; stroke-opacity: 0.5; stroke-width: 0.8"/>
     </g>
     <g id="line2d_20">
      <defs>
       <path id="m7171661906" d="M 0 0 
L -3.5 0 
" style="stroke: #cbd5e1; stroke-width: 0.8"/>
      </defs>
      <g>
       <use xlink:href="#m7171661906" x="301.522656" y="343.639219" style="fill: #cbd5e1; stroke: #cbd5e1; stroke-width: 0.8"/>
      </g>
     </g>
     <g id="text_10">
      <!-- −4 -->
      <g style="fill: #cbd5e1" transform="translate(279.780469 347.438438) scale(0.1 -0.1)">
       <defs>
        <path id="DejaVuSans-34" d="M 2419 4116 
L 825 1625 
L 2419 1625 
L 2419 4116 
z
M 2253 4666 
L 3047 4666 
L 3047 1625 
L 3713 1625 
L 3713 1100 
L 3047 1100 
L 3047 0 
L 2419 0 
L 2419 1100 
L 313 1100 
L 313 1709 
L 2253 4666 
z
" transform="scale(0.015625)"/>
       </defs>
       <use xlink:href="#DejaVuSans-2212"/>
       <use xlink:href="#DejaVuSans-34" transform="translate(83.789062 0)"/>
      </g>
     </g>
    </g>
    <g id="ytick_2">
     <g id="line2d_21">
      <path d="M 22.522656 302.059219 
L 580.522656 302.059219 
" clip-path="url(#p711518ff32)" style="fill: none; stroke-dasharray: 0.8,1.32; stroke-dashoffset: 0; stroke: #334155; stroke-opacity: 0.5; stroke-width: 0.8"/>
     </g>
     <g id="line2d_22">
      <g>
       <use xlink:href="#m7171661906" x="301.522656" y="302.059219" style="fill: #cbd5e1; stroke: #cbd5e1; stroke-width: 0.8"/>
      </g>
     </g>
     <g id="text_11">
      <!-- −3 -->
      <g style="fill: #cbd5e1" transform="translate(279.780469 305.858438) scale(0.1 -0.1)">
       <defs>
        <path id="DejaVuSans-33" d="M 2597 2516 
Q 3050 2419 3304 2112 
Q 3559 1806 3559 1356 
Q 3559 666 3084 287 
Q 2609 -91 1734 -91 
Q 1441 -91 1130 -33 
Q 819 25 488 141 
L 488 750 
Q 750 597 1062 519 
Q 1375 441 1716 441 
Q 2309 441 2620 675 
Q 2931 909 2931 1356 
Q 2931 1769 2642 2001 
Q 2353 2234 1838 2234 
L 1294 2234 
L 1294 2753 
L 1863 2753 
Q 2328 2753 2575 2939 
Q 2822 3125 2822 3475 
Q 2822 3834 2567 4026 
Q 2313 4219 1838 4219 
Q 1578 4219 1281 4162 
Q 984 4106 628 3988 
L 628 4550 
Q 988 4650 1302 4700 
Q 1616 4750 1894 4750 
Q 2613 4750 3031 4423 
Q 3450 4097 3450 3541 
Q 3450 3153 3228 2886 
Q 3006 2619 2597 2516 
z
" transform="scale(0.015625)"/>
       </defs>
       <use xlink:href="#DejaVuSans-2212"/>
       <use xlink:href="#DejaVuSans-33" transform="translate(83.789062 0)"/>
      </g>
     </g>
    </g>
    <g id="ytick_3">
     <g id="line2d_23">
      <path d="M 22.522656 260.479219 
L 580.522656 260.479219 
" clip-path="url(#p711518ff32)" style="fill: none; stroke-dasharray: 0.8,1.32; stroke-dashoffset: 0; stroke: #334155; stroke-opacity: 0.5; stroke-width: 0.8"/>
     </g>
     <g id="line2d_24">
      <g>
       <use xlink:href="#m7171661906" x="301.522656" y="260.479219" style="fill: #cbd5e1; stroke: #cbd5e1; stroke-width: 0.8"/>
      </g>
     </g>
     <g id="text_12">
      <!-- −2 -->
      <g style="fill: #cbd5e1" transform="translate(279.780469 264.278438) scale(0.1 -0.1)">
       <use xlink:href="#DejaVuSans-2212"/>
       <use xlink:href="#DejaVuSans-32" transform="translate(83.789062 0)"/>
      </g>
     </g>
    </g>
    <g id="ytick_4">
     <g id="line2d_25">
      <path d="M 22.522656 218.899219 
L 580.522656 218.899219 
" clip-path="url(#p711518ff32)" style="fill: none; stroke-dasharray: 0.8,1.32; stroke-dashoffset: 0; stroke: #334155; stroke-opacity: 0.5; stroke-width: 0.8"/>
     </g>
     <g id="line2d_26">
      <g>
       <use xlink:href="#m7171661906" x="301.522656" y="218.899219" style="fill: #cbd5e1; stroke: #cbd5e1; stroke-width: 0.8"/>
      </g>
     </g>
     <g id="text_13">
      <!-- −1 -->
      <g style="fill: #cbd5e1" transform="translate(279.780469 222.698438) scale(0.1 -0.1)">
       <use xlink:href="#DejaVuSans-2212"/>
       <use xlink:href="#DejaVuSans-31" transform="translate(83.789062 0)"/>
      </g>
     </g>
    </g>
    <g id="ytick_5">
     <g id="line2d_27">
      <path d="M 22.522656 177.319219 
L 580.522656 177.319219 
" clip-path="url(#p711518ff32)" style="fill: none; stroke-dasharray: 0.8,1.32; stroke-dashoffset: 0; stroke: #334155; stroke-opacity: 0.5; stroke-width: 0.8"/>
     </g>
     <g id="line2d_28">
      <g>
       <use xlink:href="#m7171661906" x="301.522656" y="177.319219" style="fill: #cbd5e1; stroke: #cbd5e1; stroke-width: 0.8"/>
      </g>
     </g>
     <g id="text_14">
      <!-- 0 -->
      <g style="fill: #cbd5e1" transform="translate(288.160156 181.118438) scale(0.1 -0.1)">
       <use xlink:href="#DejaVuSans-30"/>
      </g>
     </g>
    </g>
    <g id="ytick_6">
     <g id="line2d_29">
      <path d="M 22.522656 135.739219 
L 580.522656 135.739219 
" clip-path="url(#p711518ff32)" style="fill: none; stroke-dasharray: 0.8,1.32; stroke-dashoffset: 0; stroke: #334155; stroke-opacity: 0.5; stroke-width: 0.8"/>
     </g>
     <g id="line2d_30">
      <g>
       <use xlink:href="#m7171661906" x="301.522656" y="135.739219" style="fill: #cbd5e1; stroke: #cbd5e1; stroke-width: 0.8"/>
      </g>
     </g>
     <g id="text_15">
      <!-- 1 -->
      <g style="fill: #cbd5e1" transform="translate(288.160156 139.538438) scale(0.1 -0.1)">
       <use xlink:href="#DejaVuSans-31"/>
      </g>
     </g>
    </g>
    <g id="ytick_7">
     <g id="line2d_31">
      <path d="M 22.522656 94.159219 
L 580.522656 94.159219 
" clip-path="url(#p711518ff32)" style="fill: none; stroke-dasharray: 0.8,1.32; stroke-dashoffset: 0; stroke: #334155; stroke-opacity: 0.5; stroke-width: 0.8"/>
     </g>
     <g id="line2d_32">
      <g>
       <use xlink:href="#m7171661906" x="301.522656" y="94.159219" style="fill: #cbd5e1; stroke: #cbd5e1; stroke-width: 0.8"/>
      </g>
     </g>
     <g id="text_16">
      <!-- 2 -->
      <g style="fill: #cbd5e1" transform="translate(288.160156 97.958438) scale(0.1 -0.1)">
       <use xlink:href="#DejaVuSans-32"/>
      </g>
     </g>
    </g>
    <g id="ytick_8">
     <g id="line2d_33">
      <path d="M 22.522656 52.579219 
L 580.522656 52.579219 
" clip-path="url(#p711518ff32)" style="fill: none; stroke-dasharray: 0.8,1.32; stroke-dashoffset: 0; stroke: #334155; stroke-opacity: 0.5; stroke-width: 0.8"/>
     </g>
     <g id="line2d_34">
      <g>
       <use xlink:href="#m7171661906" x="301.522656" y="52.579219" style="fill: #cbd5e1; stroke: #cbd5e1; stroke-width: 0.8"/>
      </g>
     </g>
     <g id="text_17">
      <!-- 3 -->
      <g style="fill: #cbd5e1" transform="translate(288.160156 56.378438) scale(0.1 -0.1)">
       <use xlink:href="#DejaVuSans-33"/>
      </g>
     </g>
    </g>
    <g id="ytick_9">
     <g id="line2d_35">
      <path d="M 22.522656 10.999219 
L 580.522656 10.999219 
" clip-path="url(#p711518ff32)" style="fill: none; stroke-dasharray: 0.8,1.32; stroke-dashoffset: 0; stroke: #334155; stroke-opacity: 0.5; stroke-width: 0.8"/>
     </g>
     <g id="line2d_36">
      <g>
       <use xlink:href="#m7171661906" x="301.522656" y="10.999219" style="fill: #cbd5e1; stroke: #cbd5e1; stroke-width: 0.8"/>
      </g>
     </g>
     <g id="text_18">
      <!-- 4 -->
      <g style="fill: #cbd5e1" transform="translate(288.160156 14.798438) scale(0.1 -0.1)">
       <use xlink:href="#DejaVuSans-34"/>
      </g>
     </g>
    </g>
   </g>
   <g id="line2d_37">
    <path d="M 22.522656 154.698821 
L 25.877366 159.047065 
L 30.350312 165.243746 
L 35.941494 173.405684 
L 47.123859 189.866531 
L 51.596805 196.033813 
L 54.951514 200.352507 
L 58.306223 204.338592 
L 61.660933 207.934507 
L 65.015642 211.088327 
L 67.252115 212.922492 
L 69.488588 214.528003 
L 71.725061 215.894551 
L 73.961534 217.013359 
L 76.198007 217.877242 
L 78.43448 218.480652 
L 80.670953 218.819713 
L 82.907426 218.892249 
L 85.143899 218.697792 
L 87.380372 218.237593 
L 89.616845 217.514605 
L 91.853318 216.533474 
L 94.089791 215.300499 
L 96.326263 213.8236 
L 98.562736 212.112261 
L 100.799209 210.177472 
L 104.153919 206.883877 
L 107.508628 203.163357 
L 110.863338 199.069638 
L 114.218047 194.661835 
L 118.690993 188.406742 
L 125.400412 178.543155 
L 134.346304 165.381468 
L 138.819249 159.176389 
L 142.173959 154.819656 
L 145.528668 150.787825 
L 148.883378 147.139116 
L 152.238087 143.92622 
L 154.47456 142.049597 
L 156.711033 140.399485 
L 158.947506 138.98648 
L 161.183979 137.819656 
L 163.420452 136.906509 
L 165.656925 136.252901 
L 167.893398 135.863031 
L 170.129871 135.739402 
L 172.366344 135.882809 
L 174.602817 136.29233 
L 176.83929 136.965336 
L 179.075762 137.897504 
L 181.312235 139.082847 
L 183.548708 140.513754 
L 185.785181 142.181033 
L 188.021654 144.073979 
L 190.258127 146.180433 
L 193.612837 149.710498 
L 196.967546 153.639242 
L 200.322255 157.909933 
L 204.795201 164.028915 
L 210.386384 172.137702 
L 222.686985 190.238597 
L 227.159931 196.382001 
L 230.51464 200.676883 
L 233.86935 204.634473 
L 237.224059 208.19762 
L 239.460532 210.32825 
L 241.697005 212.246889 
L 243.933478 213.941214 
L 246.169951 215.400344 
L 248.406424 216.614908 
L 250.642897 217.577105 
L 252.87937 218.280757 
L 255.115843 218.721345 
L 257.352316 218.896038 
L 259.588789 218.803714 
L 261.825261 218.444968 
L 264.061734 217.822102 
L 266.298207 216.939117 
L 268.53468 215.801684 
L 270.771153 214.417107 
L 273.007626 212.794279 
L 275.244099 210.943621 
L 277.480572 208.87702 
L 280.835282 205.401615 
L 284.189991 201.520689 
L 287.5447 197.290286 
L 292.017646 191.212318 
L 297.608829 183.132973 
L 311.027666 163.426119 
L 315.500612 157.348152 
L 318.855322 153.117748 
L 322.210031 149.236823 
L 325.56474 145.761418 
L 327.801213 143.694816 
L 330.037686 141.844159 
L 332.274159 140.22133 
L 334.510632 138.836754 
L 336.747105 137.69932 
L 338.983578 136.816335 
L 341.220051 136.19347 
L 343.456524 135.834723 
L 345.692997 135.7424 
L 347.92947 135.917093 
L 350.165943 136.35768 
L 352.402416 137.061332 
L 354.638889 138.02353 
L 356.875362 139.238093 
L 359.111835 140.697223 
L 361.348308 142.391548 
L 363.58478 144.310187 
L 365.821253 146.440818 
L 369.175963 150.003965 
L 372.530672 153.961554 
L 375.885382 158.256437 
L 380.358328 164.39984 
L 385.94951 172.525725 
L 398.250111 190.609522 
L 402.723057 196.728504 
L 406.077766 200.999196 
L 409.432476 204.92794 
L 412.787185 208.458004 
L 415.023658 210.564458 
L 417.260131 212.457404 
L 419.496604 214.124684 
L 421.733077 215.55559 
L 423.96955 216.740934 
L 426.206023 217.673102 
L 428.442496 218.346107 
L 430.678969 218.755629 
L 432.915442 218.899035 
L 435.151915 218.775407 
L 437.388388 218.385537 
L 439.624861 217.731929 
L 441.861334 216.818781 
L 444.097807 215.651958 
L 446.334279 214.238953 
L 448.570752 212.58884 
L 450.807225 210.712218 
L 453.043698 208.621138 
L 456.398408 205.112142 
L 459.753117 201.201806 
L 463.107827 196.946596 
L 467.580772 190.843326 
L 473.171955 182.745715 
L 486.590793 163.058355 
L 491.063738 157.006227 
L 494.418448 152.801003 
L 497.773157 148.949831 
L 501.127867 145.508324 
L 503.36434 143.466384 
L 505.600813 141.641854 
L 507.837286 140.046454 
L 510.073758 138.690428 
L 512.310231 137.582485 
L 514.546704 136.729741 
L 516.783177 136.137672 
L 519.01965 135.810081 
L 521.256123 135.749071 
L 523.492596 135.955035 
L 525.729069 136.426649 
L 527.965542 137.160885 
L 530.202015 138.153028 
L 532.438488 139.396705 
L 534.674961 140.883929 
L 536.911434 142.605149 
L 539.147907 144.549312 
L 542.502616 147.855887 
L 545.857326 151.587923 
L 549.212035 155.691528 
L 552.566744 160.107445 
L 557.03969 166.370402 
L 563.749109 176.239077 
L 572.695001 189.394691 
L 577.167947 195.591373 
L 580.522656 199.939617 
L 580.522656 199.939617 
" clip-path="url(#p711518ff32)" style="fill: none; stroke-dasharray: 9.25,4; stroke-dashoffset: 0; stroke: #94a3b8; stroke-opacity: 0.8; stroke-width: 2.5"/>
   </g>
   <g id="line2d_38">
    <path d="M 166.394671 -1 
L 167.893398 11.382797 
L 170.129871 28.12167 
L 172.366344 43.093817 
L 174.602817 56.511551 
L 176.83929 68.566738 
L 179.075762 79.432109 
L 181.312235 89.262522 
L 183.548708 98.196171 
L 185.785181 106.355754 
L 188.021654 113.84959 
L 190.258127 120.772682 
L 193.612837 130.265002 
L 196.967546 138.889063 
L 200.322255 146.827035 
L 203.676965 154.217345 
L 207.031674 161.160742 
L 211.50462 169.83813 
L 215.977566 177.930558 
L 220.450512 185.463071 
L 223.805221 190.732505 
L 227.159931 195.652198 
L 230.51464 200.192504 
L 233.86935 204.319462 
L 237.224059 207.997295 
L 239.460532 210.182111 
L 241.697005 212.14153 
L 243.933478 213.866214 
L 246.169951 215.347681 
L 248.406424 216.578473 
L 250.642897 217.5523 
L 252.87937 218.264163 
L 255.115843 218.710454 
L 257.352316 218.889039 
L 259.588789 218.79932 
L 261.825261 218.442279 
L 264.061734 217.820503 
L 266.298207 216.938197 
L 268.53468 215.801173 
L 270.771153 214.416835 
L 273.007626 212.794141 
L 275.244099 210.943555 
L 277.480572 208.87699 
L 280.835282 205.401607 
L 284.189991 201.520688 
L 287.5447 197.290285 
L 292.017646 191.212318 
L 297.608829 183.132973 
L 311.027666 163.426119 
L 315.500612 157.348152 
L 318.855322 153.11775 
L 322.210031 149.236831 
L 325.56474 145.761447 
L 327.801213 143.694882 
L 330.037686 141.844297 
L 332.274159 140.221603 
L 334.510632 138.837265 
L 336.747105 137.700241 
L 338.983578 136.817934 
L 341.220051 136.196159 
L 343.456524 135.839117 
L 345.692997 135.749399 
L 347.92947 135.927984 
L 350.165943 136.374274 
L 352.402416 137.086137 
L 354.638889 138.059964 
L 356.875362 139.290757 
L 359.111835 140.772224 
L 361.348308 142.496908 
L 363.58478 144.456327 
L 365.821253 146.641143 
L 369.175963 150.318975 
L 372.530672 154.445933 
L 375.885382 158.98624 
L 379.240091 163.905932 
L 382.594801 169.175367 
L 387.067746 176.707879 
L 391.540692 184.800307 
L 396.013638 193.477695 
L 399.368348 200.421092 
L 402.723057 207.811403 
L 406.077766 215.749375 
L 409.432476 224.373435 
L 412.787185 233.865756 
L 415.023658 240.788848 
L 417.260131 248.282683 
L 419.496604 256.442267 
L 421.733077 265.375916 
L 423.96955 275.206328 
L 426.206023 286.071699 
L 428.442496 298.126886 
L 430.678969 311.54462 
L 432.915442 326.516767 
L 435.151915 343.25564 
L 436.891997 357.718125 
L 436.891997 357.718125 
" clip-path="url(#p711518ff32)" style="fill: none; stroke: #dc2626; stroke-width: 3.5; stroke-linecap: square"/>
   </g>
   <g id="patch_3">
    <path d="M 301.522656 343.639219 
L 301.522656 10.999219 
" style="fill: none; stroke: #cbd5e1; stroke-width: 0.8; stroke-linejoin: miter; stroke-linecap: square"/>
   </g>
   <g id="patch_4">
    <path d="M 580.522656 343.639219 
L 580.522656 10.999219 
" style="fill: none"/>
   </g>
   <g id="patch_5">
    <path d="M 22.522656 177.319219 
L 580.522656 177.319219 
" style="fill: none; stroke: #cbd5e1; stroke-width: 0.8; stroke-linejoin: miter; stroke-linecap: square"/>
   </g>
   <g id="patch_6">
    <path d="M 22.522656 10.999219 
L 580.522656 10.999219 
" style="fill: none"/>
   </g>
   <g id="text_19">
    <g id="patch_7">
     <path d="M 32.472656 63.139219 
L 207.672656 63.139219 
L 207.672656 31.459219 
L 32.472656 31.459219 
z
" style="fill: #0f172a; opacity: 0.7"/>
    </g>
    <!-- $T(x) = x - \frac{x^3}{3!} + \frac{x^5}{5!} - \frac{x^7}{7!}$ -->
    <g style="fill: #ef4444" transform="translate(36.472656 52.579219) scale(0.16 -0.16)">
     <defs>
      <path id="DejaVuSans-Oblique-54" d="M 378 4666 
L 4325 4666 
L 4225 4134 
L 2559 4134 
L 1759 0 
L 1125 0 
L 1925 4134 
L 275 4134 
L 378 4666 
z
" transform="scale(0.015625)"/>
      <path id="DejaVuSans-28" d="M 1984 4856 
Q 1566 4138 1362 3434 
Q 1159 2731 1159 2009 
Q 1159 1288 1364 580 
Q 1569 -128 1984 -844 
L 1484 -844 
Q 1016 -109 783 600 
Q 550 1309 550 2009 
Q 550 2706 781 3412 
Q 1013 4119 1484 4856 
L 1984 4856 
z
" transform="scale(0.015625)"/>
      <path id="DejaVuSans-Oblique-78" d="M 3841 3500 
L 2234 1784 
L 3219 0 
L 2559 0 
L 1819 1388 
L 531 0 
L -166 0 
L 1556 1844 
L 641 3500 
L 1300 3500 
L 1972 2234 
L 3144 3500 
L 3841 3500 
z
" transform="scale(0.015625)"/>
      <path id="DejaVuSans-29" d="M 513 4856 
L 1013 4856 
Q 1481 4119 1714 3412 
Q 1947 2706 1947 2009 
Q 1947 1309 1714 600 
Q 1481 -109 1013 -844 
L 513 -844 
Q 928 -128 1133 580 
Q 1338 1288 1338 2009 
Q 1338 2731 1133 3434 
Q 928 4138 513 4856 
z
" transform="scale(0.015625)"/>
      <path id="DejaVuSans-3d" d="M 678 2906 
L 4684 2906 
L 4684 2381 
L 678 2381 
L 678 2906 
z
M 678 1631 
L 4684 1631 
L 4684 1100 
L 678 1100 
L 678 1631 
z
" transform="scale(0.015625)"/>
      <path id="DejaVuSans-21" d="M 966 794 
L 1600 794 
L 1600 0 
L 966 0 
L 966 794 
z
M 966 4666 
L 1600 4666 
L 1600 2619 
L 1538 1503 
L 1031 1503 
L 966 2619 
L 966 4666 
z
" transform="scale(0.015625)"/>
      <path id="DejaVuSans-2b" d="M 2944 4013 
L 2944 2272 
L 4684 2272 
L 4684 1741 
L 2944 1741 
L 2944 0 
L 2419 0 
L 2419 1741 
L 678 1741 
L 678 2272 
L 2419 2272 
L 2419 4013 
L 2944 4013 
z
" transform="scale(0.015625)"/>
     </defs>
     <use xlink:href="#DejaVuSans-Oblique-54" transform="translate(0 0.039062)"/>
     <use xlink:href="#DejaVuSans-28" transform="translate(61.083984 0.039062)"/>
     <use xlink:href="#DejaVuSans-Oblique-78" transform="translate(100.097656 0.039062)"/>
     <use xlink:href="#DejaVuSans-29" transform="translate(159.277344 0.039062)"/>
     <use xlink:href="#DejaVuSans-3d" transform="translate(217.773438 0.039062)"/>
     <use xlink:href="#DejaVuSans-Oblique-78" transform="translate(321.044922 0.039062)"/>
     <use xlink:href="#DejaVuSans-2212" transform="translate(399.707031 0.039062)"/>
     <use xlink:href="#DejaVuSans-Oblique-78" transform="translate(506.978516 43.835938) scale(0.7)"/>
     <use xlink:href="#DejaVuSans-33" transform="translate(551.530599 70.632812) scale(0.49)"/>
     <use xlink:href="#DejaVuSans-33" transform="translate(502.978516 -39.367188) scale(0.7)"/>
     <use xlink:href="#DejaVuSans-21" transform="translate(547.514648 -39.367188) scale(0.7)"/>
     <use xlink:href="#DejaVuSans-2b" transform="translate(621.196289 0.039062)"/>
     <use xlink:href="#DejaVuSans-Oblique-78" transform="translate(728.467773 43.835938) scale(0.7)"/>
     <use xlink:href="#DejaVuSans-35" transform="translate(773.019857 70.632813) scale(0.49)"/>
     <use xlink:href="#DejaVuSans-35" transform="translate(724.467773 -38.448437) scale(0.7)"/>
     <use xlink:href="#DejaVuSans-21" transform="translate(769.003906 -38.448437) scale(0.7)"/>
     <use xlink:href="#DejaVuSans-2212" transform="translate(842.685547 0.039062)"/>
     <use xlink:href="#DejaVuSans-Oblique-78" transform="translate(949.957031 43.835938) scale(0.7)"/>
     <use xlink:href="#DejaVuSans-37" transform="translate(994.509115 70.632813) scale(0.49)"/>
     <use xlink:href="#DejaVuSans-37" transform="translate(945.957031 -38.448437) scale(0.7)"/>
     <use xlink:href="#DejaVuSans-21" transform="translate(990.493164 -38.448437) scale(0.7)"/>
     <path d="M 502.978516 18.835938 
L 502.978516 25.085938 
L 589.213867 25.085938 
L 589.213867 18.835938 
L 502.978516 18.835938 
z
"/>
     <path d="M 724.467773 18.835938 
L 724.467773 25.085938 
L 810.703125 25.085938 
L 810.703125 18.835938 
L 724.467773 18.835938 
z
"/>
     <path d="M 945.957031 18.835938 
L 945.957031 25.085938 
L 1032.192383 25.085938 
L 1032.192383 18.835938 
L 945.957031 18.835938 
z
"/>
    </g>
   </g>
   <g id="legend_1">
    <g id="patch_8">
     <path d="M 424.922656 338.639219 
L 573.522656 338.639219 
Q 575.522656 338.639219 575.522656 336.639219 
L 575.522656 308.261094 
Q 575.522656 306.261094 573.522656 306.261094 
L 424.922656 306.261094 
Q 422.922656 306.261094 422.922656 308.261094 
L 422.922656 336.639219 
Q 422.922656 338.639219 424.922656 338.639219 
z
" style="fill: #1e293b; opacity: 0.8; stroke: #334155; stroke-linejoin: miter"/>
    </g>
    <g id="line2d_39">
     <path d="M 426.922656 314.359531 
L 436.922656 314.359531 
L 446.922656 314.359531 
" style="fill: none; stroke-dasharray: 9.25,4; stroke-dashoffset: 0; stroke: #94a3b8; stroke-opacity: 0.8; stroke-width: 2.5"/>
    </g>
    <g id="text_20">
     <!-- $\sin(x)$ -->
     <g style="fill: #ffffff" transform="translate(454.922656 317.859531) scale(0.1 -0.1)">
      <defs>
       <path id="DejaVuSans-73" d="M 2834 3397 
L 2834 2853 
Q 2591 2978 2328 3040 
Q 2066 3103 1784 3103 
Q 1356 3103 1142 2972 
Q 928 2841 928 2578 
Q 928 2378 1081 2264 
Q 1234 2150 1697 2047 
L 1894 2003 
Q 2506 1872 2764 1633 
Q 3022 1394 3022 966 
Q 3022 478 2636 193 
Q 2250 -91 1575 -91 
Q 1294 -91 989 -36 
Q 684 19 347 128 
L 347 722 
Q 666 556 975 473 
Q 1284 391 1588 391 
Q 1994 391 2212 530 
Q 2431 669 2431 922 
Q 2431 1156 2273 1281 
Q 2116 1406 1581 1522 
L 1381 1569 
Q 847 1681 609 1914 
Q 372 2147 372 2553 
Q 372 3047 722 3315 
Q 1072 3584 1716 3584 
Q 2034 3584 2315 3537 
Q 2597 3491 2834 3397 
z
" transform="scale(0.015625)"/>
       <path id="DejaVuSans-69" d="M 603 3500 
L 1178 3500 
L 1178 0 
L 603 0 
L 603 3500 
z
M 603 4863 
L 1178 4863 
L 1178 4134 
L 603 4134 
L 603 4863 
z
" transform="scale(0.015625)"/>
       <path id="DejaVuSans-6e" d="M 3513 2113 
L 3513 0 
L 2938 0 
L 2938 2094 
Q 2938 2591 2744 2837 
Q 2550 3084 2163 3084 
Q 1697 3084 1428 2787 
Q 1159 2491 1159 1978 
L 1159 0 
L 581 0 
L 581 3500 
L 1159 3500 
L 1159 2956 
Q 1366 3272 1645 3428 
Q 1925 3584 2291 3584 
Q 2894 3584 3203 3211 
Q 3513 2838 3513 2113 
z
" transform="scale(0.015625)"/>
      </defs>
      <use xlink:href="#DejaVuSans-73" transform="translate(0 0.015625)"/>
      <use xlink:href="#DejaVuSans-69" transform="translate(52.099609 0.015625)"/>
      <use xlink:href="#DejaVuSans-6e" transform="translate(79.882812 0.015625)"/>
      <use xlink:href="#DejaVuSans-28" transform="translate(143.261719 0.015625)"/>
      <use xlink:href="#DejaVuSans-Oblique-78" transform="translate(182.275391 0.015625)"/>
      <use xlink:href="#DejaVuSans-29" transform="translate(241.455078 0.015625)"/>
     </g>
    </g>
    <g id="line2d_40">
     <path d="M 426.922656 329.039219 
L 436.922656 329.039219 
L 446.922656 329.039219 
" style="fill: none; stroke: #dc2626; stroke-width: 3.5; stroke-linecap: square"/>
    </g>
    <g id="text_21">
     <!-- Taylor Polinomu ($n=7$) -->
     <g style="fill: #ffffff" transform="translate(454.922656 332.539219) scale(0.1 -0.1)">
      <defs>
       <path id="DejaVuSans-54" d="M -19 4666 
L 3928 4666 
L 3928 4134 
L 2272 4134 
L 2272 0 
L 1638 0 
L 1638 4134 
L -19 4134 
L -19 4666 
z
" transform="scale(0.015625)"/>
       <path id="DejaVuSans-61" d="M 2194 1759 
Q 1497 1759 1228 1600 
Q 959 1441 959 1056 
Q 959 750 1161 570 
Q 1363 391 1709 391 
Q 2188 391 2477 730 
Q 2766 1069 2766 1631 
L 2766 1759 
L 2194 1759 
z
M 3341 1997 
L 3341 0 
L 2766 0 
L 2766 531 
Q 2569 213 2275 61 
Q 1981 -91 1556 -91 
Q 1019 -91 701 211 
Q 384 513 384 1019 
Q 384 1609 779 1909 
Q 1175 2209 1959 2209 
L 2766 2209 
L 2766 2266 
Q 2766 2663 2505 2880 
Q 2244 3097 1772 3097 
Q 1472 3097 1187 3025 
Q 903 2953 641 2809 
L 641 3341 
Q 956 3463 1253 3523 
Q 1550 3584 1831 3584 
Q 2591 3584 2966 3190 
Q 3341 2797 3341 1997 
z
" transform="scale(0.015625)"/>
       <path id="DejaVuSans-79" d="M 2059 -325 
Q 1816 -950 1584 -1140 
Q 1353 -1331 966 -1331 
L 506 -1331 
L 506 -850 
L 844 -850 
Q 1081 -850 1212 -737 
Q 1344 -625 1503 -206 
L 1606 56 
L 191 3500 
L 800 3500 
L 1894 763 
L 2988 3500 
L 3597 3500 
L 2059 -325 
z
" transform="scale(0.015625)"/>
       <path id="DejaVuSans-6c" d="M 603 4863 
L 1178 4863 
L 1178 0 
L 603 0 
L 603 4863 
z
" transform="scale(0.015625)"/>
       <path id="DejaVuSans-6f" d="M 1959 3097 
Q 1497 3097 1228 2736 
Q 959 2375 959 1747 
Q 959 1119 1226 758 
Q 1494 397 1959 397 
Q 2419 397 2687 759 
Q 2956 1122 2956 1747 
Q 2956 2369 2687 2733 
Q 2419 3097 1959 3097 
z
M 1959 3584 
Q 2709 3584 3137 3096 
Q 3566 2609 3566 1747 
Q 3566 888 3137 398 
Q 2709 -91 1959 -91 
Q 1206 -91 779 398 
Q 353 888 353 1747 
Q 353 2609 779 3096 
Q 1206 3584 1959 3584 
z
" transform="scale(0.015625)"/>
       <path id="DejaVuSans-72" d="M 2631 2963 
Q 2534 3019 2420 3045 
Q 2306 3072 2169 3072 
Q 1681 3072 1420 2755 
Q 1159 2438 1159 1844 
L 1159 0 
L 581 0 
L 581 3500 
L 1159 3500 
L 1159 2956 
Q 1341 3275 1631 3429 
Q 1922 3584 2338 3584 
Q 2397 3584 2469 3576 
Q 2541 3569 2628 3553 
L 2631 2963 
z
" transform="scale(0.015625)"/>
       <path id="DejaVuSans-20" transform="scale(0.015625)"/>
       <path id="DejaVuSans-50" d="M 1259 4147 
L 1259 2394 
L 2053 2394 
Q 2494 2394 2734 2622 
Q 2975 2850 2975 3272 
Q 2975 3691 2734 3919 
Q 2494 4147 2053 4147 
L 1259 4147 
z
M 628 4666 
L 2053 4666 
Q 2838 4666 3239 4311 
Q 3641 3956 3641 3272 
Q 3641 2581 3239 2228 
Q 2838 1875 2053 1875 
L 1259 1875 
L 1259 0 
L 628 0 
L 628 4666 
z
" transform="scale(0.015625)"/>
       <path id="DejaVuSans-6d" d="M 3328 2828 
Q 3544 3216 3844 3400 
Q 4144 3584 4550 3584 
Q 5097 3584 5394 3201 
Q 5691 2819 5691 2113 
L 5691 0 
L 5113 0 
L 5113 2094 
Q 5113 2597 4934 2840 
Q 4756 3084 4391 3084 
Q 3944 3084 3684 2787 
Q 3425 2491 3425 1978 
L 3425 0 
L 2847 0 
L 2847 2094 
Q 2847 2600 2669 2842 
Q 2491 3084 2119 3084 
Q 1678 3084 1418 2786 
Q 1159 2488 1159 1978 
L 1159 0 
L 581 0 
L 581 3500 
L 1159 3500 
L 1159 2956 
Q 1356 3278 1631 3431 
Q 1906 3584 2284 3584 
Q 2666 3584 2933 3390 
Q 3200 3197 3328 2828 
z
" transform="scale(0.015625)"/>
       <path id="DejaVuSans-75" d="M 544 1381 
L 544 3500 
L 1119 3500 
L 1119 1403 
Q 1119 906 1312 657 
Q 1506 409 1894 409 
Q 2359 409 2629 706 
Q 2900 1003 2900 1516 
L 2900 3500 
L 3475 3500 
L 3475 0 
L 2900 0 
L 2900 538 
Q 2691 219 2414 64 
Q 2138 -91 1772 -91 
Q 1169 -91 856 284 
Q 544 659 544 1381 
z
M 1991 3584 
L 1991 3584 
z
" transform="scale(0.015625)"/>
       <path id="DejaVuSans-Oblique-6e" d="M 3566 2113 
L 3156 0 
L 2578 0 
L 2988 2091 
Q 3016 2238 3031 2350 
Q 3047 2463 3047 2528 
Q 3047 2791 2881 2937 
Q 2716 3084 2419 3084 
Q 1956 3084 1622 2776 
Q 1288 2469 1184 1941 
L 800 0 
L 225 0 
L 903 3500 
L 1478 3500 
L 1363 2950 
Q 1603 3253 1940 3418 
Q 2278 3584 2650 3584 
Q 3113 3584 3367 3334 
Q 3622 3084 3622 2631 
Q 3622 2519 3608 2391 
Q 3594 2263 3566 2113 
z
" transform="scale(0.015625)"/>
      </defs>
      <use xlink:href="#DejaVuSans-54" transform="translate(0 0.015625)"/>
      <use xlink:href="#DejaVuSans-61" transform="translate(61.083984 0.015625)"/>
      <use xlink:href="#DejaVuSans-79" transform="translate(122.363281 0.015625)"/>
      <use xlink:href="#DejaVuSans-6c" transform="translate(181.542969 0.015625)"/>
      <use xlink:href="#DejaVuSans-6f" transform="translate(209.326172 0.015625)"/>
      <use xlink:href="#DejaVuSans-72" transform="translate(270.507812 0.015625)"/>
      <use xlink:href="#DejaVuSans-20" transform="translate(311.621094 0.015625)"/>
      <use xlink:href="#DejaVuSans-50" transform="translate(343.408203 0.015625)"/>
      <use xlink:href="#DejaVuSans-6f" transform="translate(403.710938 0.015625)"/>
      <use xlink:href="#DejaVuSans-6c" transform="translate(464.892578 0.015625)"/>
      <use xlink:href="#DejaVuSans-69" transform="translate(492.675781 0.015625)"/>
      <use xlink:href="#DejaVuSans-6e" transform="translate(520.458984 0.015625)"/>
      <use xlink:href="#DejaVuSans-6f" transform="translate(583.837891 0.015625)"/>
      <use xlink:href="#DejaVuSans-6d" transform="translate(645.019531 0.015625)"/>
      <use xlink:href="#DejaVuSans-75" transform="translate(742.431641 0.015625)"/>
      <use xlink:href="#DejaVuSans-20" transform="translate(805.810547 0.015625)"/>
      <use xlink:href="#DejaVuSans-28" transform="translate(837.597656 0.015625)"/>
      <use xlink:href="#DejaVuSans-Oblique-6e" transform="translate(876.611328 0.015625)"/>
      <use xlink:href="#DejaVuSans-3d" transform="translate(959.472656 0.015625)"/>
      <use xlink:href="#DejaVuSans-37" transform="translate(1062.744141 0.015625)"/>
      <use xlink:href="#DejaVuSans-29" transform="translate(1126.367188 0.015625)"/>
     </g>
    </g>
   </g>
  </g>
 </g>
 <defs>
  <clipPath id="p711518ff32">
   <rect x="22.522656" y="10.999219" width="558" height="332.64"/>
  </clipPath>
 </defs>
</svg>
