<?xml version="1.0" encoding="utf-8" standalone="no"?>
<!DOCTYPE svg PUBLIC "-//W3C//DTD SVG 1.1//EN"
  "http://www.w3.org/Graphics/SVG/1.1/DTD/svg11.dtd">
<svg xmlns:xlink="http://www.w3.org/1999/xlink" width="471.352344pt" height="356.718125pt" viewBox="0 0 471.352344 356.718125" xmlns="http://www.w3.org/2000/svg" version="1.1">
 <metadata>
  <rdf:RDF xmlns:dc="http://purl.org/dc/elements/1.1/" xmlns:cc="http://creativecommons.org/ns#" xmlns:rdf="http://www.w3.org/1999/02/22-rdf-syntax-ns#">
   <cc:Work>
    <dc:type rdf:resource="http://purl.org/dc/dcmitype/StillImage"/>
    <dc:date>2026-05-11T14:18:17.635044</dc:date>
    <dc:format>image/svg+xml</dc:format>
    <dc:creator>
     <cc:Agent>
      <dc:title>Matplotlib v3.10.0, https://matplotlib.org/</dc:title>
     </cc:Agent>
    </dc:creator>
   </cc:Work>
  </rdf:RDF>
 </metadata>
 <defs>
  <style type="text/css">*{stroke-linejoin: round; stroke-linecap: butt}</style>
 </defs>
 <g id="figure_1">
  <g id="patch_1">
   <path d="M 0 356.718125 
L 471.352344 356.718125 
L 471.352344 0 
L 0 0 
L 0 356.718125 
z
" style="fill: none"/>
  </g>
  <g id="axes_1">
   <g id="patch_2">
    <path d="M 14.571094 343.639219 
L 460.971094 343.639219 
L 460.971094 10.999219 
L 14.571094 10.999219 
L 14.571094 343.639219 
z
" style="fill: none"/>
   </g>
   <g id="matplotlib.axis_1">
    <g id="xtick_1">
     <g id="line2d_1">
      <path d="M 14.571094 343.639219 
L 14.571094 10.999219 
" clip-path="url(#p56886c794c)" style="fill: none; stroke-dasharray: 0.8,1.32; stroke-dashoffset: 0; stroke: #475569; stroke-opacity: 0.5; stroke-width: 0.8"/>
     </g>
     <g id="line2d_2">
      <defs>
       <path id="m501154662d" d="M 0 0 
L 0 3.5 
" style="stroke: #cbd5e1; stroke-width: 0.8"/>
      </defs>
      <g>
       <use xlink:href="#m501154662d" x="14.571094" y="218.899219" style="fill: #cbd5e1; stroke: #cbd5e1; stroke-width: 0.8"/>
      </g>
     </g>
     <g id="text_1">
      <!-- −4 -->
      <g style="fill: #cbd5e1" transform="translate(7.2 233.497656) scale(0.1 -0.1)">
       <defs>
        <path id="DejaVuSans-2212" d="M 678 2272 
L 4684 2272 
L 4684 1741 
L 678 1741 
L 678 2272 
z
" transform="scale(0.015625)"/>
        <path id="DejaVuSans-34" d="M 2419 4116 
L 825 1625 
L 2419 1625 
L 2419 4116 
z
M 2253 4666 
L 3047 4666 
L 3047 1625 
L 3713 1625 
L 3713 1100 
L 3047 1100 
L 3047 0 
L 2419 0 
L 2419 1100 
L 313 1100 
L 313 1709 
L 2253 4666 
z
" transform="scale(0.015625)"/>
       </defs>
       <use xlink:href="#DejaVuSans-2212"/>
       <use xlink:href="#DejaVuSans-34" transform="translate(83.789062 0)"/>
      </g>
     </g>
    </g>
    <g id="xtick_2">
     <g id="line2d_3">
      <path d="M 70.371094 343.639219 
L 70.371094 10.999219 
" clip-path="url(#p56886c794c)" style="fill: none; stroke-dasharray: 0.8,1.32; stroke-dashoffset: 0; stroke: #475569; stroke-opacity: 0.5; stroke-width: 0.8"/>
     </g>
     <g id="line2d_4">
      <g>
       <use xlink:href="#m501154662d" x="70.371094" y="218.899219" style="fill: #cbd5e1; stroke: #cbd5e1; stroke-width: 0.8"/>
      </g>
     </g>
     <g id="text_2">
      <!-- −3 -->
      <g style="fill: #cbd5e1" transform="translate(63 233.497656) scale(0.1 -0.1)">
       <defs>
        <path id="DejaVuSans-33" d="M 2597 2516 
Q 3050 2419 3304 2112 
Q 3559 1806 3559 1356 
Q 3559 666 3084 287 
Q 2609 -91 1734 -91 
Q 1441 -91 1130 -33 
Q 819 25 488 141 
L 488 750 
Q 750 597 1062 519 
Q 1375 441 1716 441 
Q 2309 441 2620 675 
Q 2931 909 2931 1356 
Q 2931 1769 2642 2001 
Q 2353 2234 1838 2234 
L 1294 2234 
L 1294 2753 
L 1863 2753 
Q 2328 2753 2575 2939 
Q 2822 3125 2822 3475 
Q 2822 3834 2567 4026 
Q 2313 4219 1838 4219 
Q 1578 4219 1281 4162 
Q 984 4106 628 3988 
L 628 4550 
Q 988 4650 1302 4700 
Q 1616 4750 1894 4750 
Q 2613 4750 3031 4423 
Q 3450 4097 3450 3541 
Q 3450 3153 3228 2886 
Q 3006 2619 2597 2516 
z
" transform="scale(0.015625)"/>
       </defs>
       <use xlink:href="#DejaVuSans-2212"/>
       <use xlink:href="#DejaVuSans-33" transform="translate(83.789062 0)"/>
      </g>
     </g>
    </g>
    <g id="xtick_3">
     <g id="line2d_5">
      <path d="M 126.171094 343.639219 
L 126.171094 10.999219 
" clip-path="url(#p56886c794c)" style="fill: none; stroke-dasharray: 0.8,1.32; stroke-dashoffset: 0; stroke: #475569; stroke-opacity: 0.5; stroke-width: 0.8"/>
     </g>
     <g id="line2d_6">
      <g>
       <use xlink:href="#m501154662d" x="126.171094" y="218.899219" style="fill: #cbd5e1; stroke: #cbd5e1; stroke-width: 0.8"/>
      </g>
     </g>
     <g id="text_3">
      <!-- −2 -->
      <g style="fill: #cbd5e1" transform="translate(118.8 233.497656) scale(0.1 -0.1)">
       <defs>
        <path id="DejaVuSans-32" d="M 1228 531 
L 3431 531 
L 3431 0 
L 469 0 
L 469 531 
Q 828 903 1448 1529 
Q 2069 2156 2228 2338 
Q 2531 2678 2651 2914 
Q 2772 3150 2772 3378 
Q 2772 3750 2511 3984 
Q 2250 4219 1831 4219 
Q 1534 4219 1204 4116 
Q 875 4013 500 3803 
L 500 4441 
Q 881 4594 1212 4672 
Q 1544 4750 1819 4750 
Q 2544 4750 2975 4387 
Q 3406 4025 3406 3419 
Q 3406 3131 3298 2873 
Q 3191 2616 2906 2266 
Q 2828 2175 2409 1742 
Q 1991 1309 1228 531 
z
" transform="scale(0.015625)"/>
       </defs>
       <use xlink:href="#DejaVuSans-2212"/>
       <use xlink:href="#DejaVuSans-32" transform="translate(83.789062 0)"/>
      </g>
     </g>
    </g>
    <g id="xtick_4">
     <g id="line2d_7">
      <path d="M 181.971094 343.639219 
L 181.971094 10.999219 
" clip-path="url(#p56886c794c)" style="fill: none; stroke-dasharray: 0.8,1.32; stroke-dashoffset: 0; stroke: #475569; stroke-opacity: 0.5; stroke-width: 0.8"/>
     </g>
     <g id="line2d_8">
      <g>
       <use xlink:href="#m501154662d" x="181.971094" y="218.899219" style="fill: #cbd5e1; stroke: #cbd5e1; stroke-width: 0.8"/>
      </g>
     </g>
     <g id="text_4">
      <!-- −1 -->
      <g style="fill: #cbd5e1" transform="translate(174.6 233.497656) scale(0.1 -0.1)">
       <defs>
        <path id="DejaVuSans-31" d="M 794 531 
L 1825 531 
L 1825 4091 
L 703 3866 
L 703 4441 
L 1819 4666 
L 2450 4666 
L 2450 531 
L 3481 531 
L 3481 0 
L 794 0 
L 794 531 
z
" transform="scale(0.015625)"/>
       </defs>
       <use xlink:href="#DejaVuSans-2212"/>
       <use xlink:href="#DejaVuSans-31" transform="translate(83.789062 0)"/>
      </g>
     </g>
    </g>
    <g id="xtick_5">
     <g id="line2d_9">
      <path d="M 237.771094 343.639219 
L 237.771094 10.999219 
" clip-path="url(#p56886c794c)" style="fill: none; stroke-dasharray: 0.8,1.32; stroke-dashoffset: 0; stroke: #475569; stroke-opacity: 0.5; stroke-width: 0.8"/>
     </g>
     <g id="line2d_10">
      <g>
       <use xlink:href="#m501154662d" x="237.771094" y="218.899219" style="fill: #cbd5e1; stroke: #cbd5e1; stroke-width: 0.8"/>
      </g>
     </g>
     <g id="text_5">
      <!-- 0 -->
      <g style="fill: #cbd5e1" transform="translate(234.589844 233.497656) scale(0.1 -0.1)">
       <defs>
        <path id="DejaVuSans-30" d="M 2034 4250 
Q 1547 4250 1301 3770 
Q 1056 3291 1056 2328 
Q 1056 1369 1301 889 
Q 1547 409 2034 409 
Q 2525 409 2770 889 
Q 3016 1369 3016 2328 
Q 3016 3291 2770 3770 
Q 2525 4250 2034 4250 
z
M 2034 4750 
Q 2819 4750 3233 4129 
Q 3647 3509 3647 2328 
Q 3647 1150 3233 529 
Q 2819 -91 2034 -91 
Q 1250 -91 836 529 
Q 422 1150 422 2328 
Q 422 3509 836 4129 
Q 1250 4750 2034 4750 
z
" transform="scale(0.015625)"/>
       </defs>
       <use xlink:href="#DejaVuSans-30"/>
      </g>
     </g>
    </g>
    <g id="xtick_6">
     <g id="line2d_11">
      <path d="M 293.571094 343.639219 
L 293.571094 10.999219 
" clip-path="url(#p56886c794c)" style="fill: none; stroke-dasharray: 0.8,1.32; stroke-dashoffset: 0; stroke: #475569; stroke-opacity: 0.5; stroke-width: 0.8"/>
     </g>
     <g id="line2d_12">
      <g>
       <use xlink:href="#m501154662d" x="293.571094" y="218.899219" style="fill: #cbd5e1; stroke: #cbd5e1; stroke-width: 0.8"/>
      </g>
     </g>
     <g id="text_6">
      <!-- 1 -->
      <g style="fill: #cbd5e1" transform="translate(290.389844 233.497656) scale(0.1 -0.1)">
       <use xlink:href="#DejaVuSans-31"/>
      </g>
     </g>
    </g>
    <g id="xtick_7">
     <g id="line2d_13">
      <path d="M 349.371094 343.639219 
L 349.371094 10.999219 
" clip-path="url(#p56886c794c)" style="fill: none; stroke-dasharray: 0.8,1.32; stroke-dashoffset: 0; stroke: #475569; stroke-opacity: 0.5; stroke-width: 0.8"/>
     </g>
     <g id="line2d_14">
      <g>
       <use xlink:href="#m501154662d" x="349.371094" y="218.899219" style="fill: #cbd5e1; stroke: #cbd5e1; stroke-width: 0.8"/>
      </g>
     </g>
     <g id="text_7">
      <!-- 2 -->
      <g style="fill: #cbd5e1" transform="translate(346.189844 233.497656) scale(0.1 -0.1)">
       <use xlink:href="#DejaVuSans-32"/>
      </g>
     </g>
    </g>
    <g id="xtick_8">
     <g id="line2d_15">
      <path d="M 405.171094 343.639219 
L 405.171094 10.999219 
" clip-path="url(#p56886c794c)" style="fill: none; stroke-dasharray: 0.8,1.32; stroke-dashoffset: 0; stroke: #475569; stroke-opacity: 0.5; stroke-width: 0.8"/>
     </g>
     <g id="line2d_16">
      <g>
       <use xlink:href="#m501154662d" x="405.171094" y="218.899219" style="fill: #cbd5e1; stroke: #cbd5e1; stroke-width: 0.8"/>
      </g>
     </g>
     <g id="text_8">
      <!-- 3 -->
      <g style="fill: #cbd5e1" transform="translate(401.989844 233.497656) scale(0.1 -0.1)">
       <use xlink:href="#DejaVuSans-33"/>
      </g>
     </g>
    </g>
    <g id="xtick_9">
     <g id="line2d_17">
      <path d="M 460.971094 343.639219 
L 460.971094 10.999219 
" clip-path="url(#p56886c794c)" style="fill: none; stroke-dasharray: 0.8,1.32; stroke-dashoffset: 0; stroke: #475569; stroke-opacity: 0.5; stroke-width: 0.8"/>
     </g>
     <g id="line2d_18">
      <g>
       <use xlink:href="#m501154662d" x="460.971094" y="218.899219" style="fill: #cbd5e1; stroke: #cbd5e1; stroke-width: 0.8"/>
      </g>
     </g>
     <g id="text_9">
      <!-- 4 -->
      <g style="fill: #cbd5e1" transform="translate(457.789844 233.497656) scale(0.1 -0.1)">
       <use xlink:href="#DejaVuSans-34"/>
      </g>
     </g>
    </g>
   </g>
   <g id="matplotlib.axis_2">
    <g id="ytick_1">
     <g id="line2d_19">
      <path d="M 14.571094 343.639219 
L 460.971094 343.639219 
" clip-path="url(#p56886c794c)" style="fill: none; stroke-dasharray: 0.8,1.32; stroke-dashoffset: 0; stroke: #475569; stroke-opacity: 0.5; stroke-width: 0.8"/>
     </g>
     <g id="line2d_20">
      <defs>
       <path id="m8b8c63abcb" d="M 0 0 
L -3.5 0 
" style="stroke: #cbd5e1; stroke-width: 0.8"/>
      </defs>
      <g>
       <use xlink:href="#m8b8c63abcb" x="237.771094" y="343.639219" style="fill: #cbd5e1; stroke: #cbd5e1; stroke-width: 0.8"/>
      </g>
     </g>
     <g id="text_10">
      <!-- −3 -->
      <g style="fill: #cbd5e1" transform="translate(216.028906 347.438438) scale(0.1 -0.1)">
       <use xlink:href="#DejaVuSans-2212"/>
       <use xlink:href="#DejaVuSans-33" transform="translate(83.789062 0)"/>
      </g>
     </g>
    </g>
    <g id="ytick_2">
     <g id="line2d_21">
      <path d="M 14.571094 302.059219 
L 460.971094 302.059219 
" clip-path="url(#p56886c794c)" style="fill: none; stroke-dasharray: 0.8,1.32; stroke-dashoffset: 0; stroke: #475569; stroke-opacity: 0.5; stroke-width: 0.8"/>
     </g>
     <g id="line2d_22">
      <g>
       <use xlink:href="#m8b8c63abcb" x="237.771094" y="302.059219" style="fill: #cbd5e1; stroke: #cbd5e1; stroke-width: 0.8"/>
      </g>
     </g>
     <g id="text_11">
      <!-- −2 -->
      <g style="fill: #cbd5e1" transform="translate(216.028906 305.858438) scale(0.1 -0.1)">
       <use xlink:href="#DejaVuSans-2212"/>
       <use xlink:href="#DejaVuSans-32" transform="translate(83.789062 0)"/>
      </g>
     </g>
    </g>
    <g id="ytick_3">
     <g id="line2d_23">
      <path d="M 14.571094 260.479219 
L 460.971094 260.479219 
" clip-path="url(#p56886c794c)" style="fill: none; stroke-dasharray: 0.8,1.32; stroke-dashoffset: 0; stroke: #475569; stroke-opacity: 0.5; stroke-width: 0.8"/>
     </g>
     <g id="line2d_24">
      <g>
       <use xlink:href="#m8b8c63abcb" x="237.771094" y="260.479219" style="fill: #cbd5e1; stroke: #cbd5e1; stroke-width: 0.8"/>
      </g>
     </g>
     <g id="text_12">
      <!-- −1 -->
      <g style="fill: #cbd5e1" transform="translate(216.028906 264.278438) scale(0.1 -0.1)">
       <use xlink:href="#DejaVuSans-2212"/>
       <use xlink:href="#DejaVuSans-31" transform="translate(83.789062 0)"/>
      </g>
     </g>
    </g>
    <g id="ytick_4">
     <g id="line2d_25">
      <path d="M 14.571094 218.899219 
L 460.971094 218.899219 
" clip-path="url(#p56886c794c)" style="fill: none; stroke-dasharray: 0.8,1.32; stroke-dashoffset: 0; stroke: #475569; stroke-opacity: 0.5; stroke-width: 0.8"/>
     </g>
     <g id="line2d_26">
      <g>
       <use xlink:href="#m8b8c63abcb" x="237.771094" y="218.899219" style="fill: #cbd5e1; stroke: #cbd5e1; stroke-width: 0.8"/>
      </g>
     </g>
     <g id="text_13">
      <!-- 0 -->
      <g style="fill: #cbd5e1" transform="translate(224.408594 222.698438) scale(0.1 -0.1)">
       <use xlink:href="#DejaVuSans-30"/>
      </g>
     </g>
    </g>
    <g id="ytick_5">
     <g id="line2d_27">
      <path d="M 14.571094 177.319219 
L 460.971094 177.319219 
" clip-path="url(#p56886c794c)" style="fill: none; stroke-dasharray: 0.8,1.32; stroke-dashoffset: 0; stroke: #475569; stroke-opacity: 0.5; stroke-width: 0.8"/>
     </g>
     <g id="line2d_28">
      <g>
       <use xlink:href="#m8b8c63abcb" x="237.771094" y="177.319219" style="fill: #cbd5e1; stroke: #cbd5e1; stroke-width: 0.8"/>
      </g>
     </g>
     <g id="text_14">
      <!-- 1 -->
      <g style="fill: #cbd5e1" transform="translate(224.408594 181.118438) scale(0.1 -0.1)">
       <use xlink:href="#DejaVuSans-31"/>
      </g>
     </g>
    </g>
    <g id="ytick_6">
     <g id="line2d_29">
      <path d="M 14.571094 135.739219 
L 460.971094 135.739219 
" clip-path="url(#p56886c794c)" style="fill: none; stroke-dasharray: 0.8,1.32; stroke-dashoffset: 0; stroke: #475569; stroke-opacity: 0.5; stroke-width: 0.8"/>
     </g>
     <g id="line2d_30">
      <g>
       <use xlink:href="#m8b8c63abcb" x="237.771094" y="135.739219" style="fill: #cbd5e1; stroke: #cbd5e1; stroke-width: 0.8"/>
      </g>
     </g>
     <g id="text_15">
      <!-- 2 -->
      <g style="fill: #cbd5e1" transform="translate(224.408594 139.538438) scale(0.1 -0.1)">
       <use xlink:href="#DejaVuSans-32"/>
      </g>
     </g>
    </g>
    <g id="ytick_7">
     <g id="line2d_31">
      <path d="M 14.571094 94.159219 
L 460.971094 94.159219 
" clip-path="url(#p56886c794c)" style="fill: none; stroke-dasharray: 0.8,1.32; stroke-dashoffset: 0; stroke: #475569; stroke-opacity: 0.5; stroke-width: 0.8"/>
     </g>
     <g id="line2d_32">
      <g>
       <use xlink:href="#m8b8c63abcb" x="237.771094" y="94.159219" style="fill: #cbd5e1; stroke: #cbd5e1; stroke-width: 0.8"/>
      </g>
     </g>
     <g id="text_16">
      <!-- 3 -->
      <g style="fill: #cbd5e1" transform="translate(224.408594 97.958438) scale(0.1 -0.1)">
       <use xlink:href="#DejaVuSans-33"/>
      </g>
     </g>
    </g>
    <g id="ytick_8">
     <g id="line2d_33">
      <path d="M 14.571094 52.579219 
L 460.971094 52.579219 
" clip-path="url(#p56886c794c)" style="fill: none; stroke-dasharray: 0.8,1.32; stroke-dashoffset: 0; stroke: #475569; stroke-opacity: 0.5; stroke-width: 0.8"/>
     </g>
     <g id="line2d_34">
      <g>
       <use xlink:href="#m8b8c63abcb" x="237.771094" y="52.579219" style="fill: #cbd5e1; stroke: #cbd5e1; stroke-width: 0.8"/>
      </g>
     </g>
     <g id="text_17">
      <!-- 4 -->
      <g style="fill: #cbd5e1" transform="translate(224.408594 56.378438) scale(0.1 -0.1)">
       <use xlink:href="#DejaVuSans-34"/>
      </g>
     </g>
    </g>
    <g id="ytick_9">
     <g id="line2d_35">
      <path d="M 14.571094 10.999219 
L 460.971094 10.999219 
" clip-path="url(#p56886c794c)" style="fill: none; stroke-dasharray: 0.8,1.32; stroke-dashoffset: 0; stroke: #475569; stroke-opacity: 0.5; stroke-width: 0.8"/>
     </g>
     <g id="line2d_36">
      <g>
       <use xlink:href="#m8b8c63abcb" x="237.771094" y="10.999219" style="fill: #cbd5e1; stroke: #cbd5e1; stroke-width: 0.8"/>
      </g>
     </g>
     <g id="text_18">
      <!-- 5 -->
      <g style="fill: #cbd5e1" transform="translate(224.408594 14.798438) scale(0.1 -0.1)">
       <defs>
        <path id="DejaVuSans-35" d="M 691 4666 
L 3169 4666 
L 3169 4134 
L 1269 4134 
L 1269 2991 
Q 1406 3038 1543 3061 
Q 1681 3084 1819 3084 
Q 2600 3084 3056 2656 
Q 3513 2228 3513 1497 
Q 3513 744 3044 326 
Q 2575 -91 1722 -91 
Q 1428 -91 1123 -41 
Q 819 9 494 109 
L 494 744 
Q 775 591 1075 516 
Q 1375 441 1709 441 
Q 2250 441 2565 725 
Q 2881 1009 2881 1497 
Q 2881 1984 2565 2268 
Q 2250 2553 1709 2553 
Q 1456 2553 1204 2497 
Q 953 2441 691 2322 
L 691 4666 
z
" transform="scale(0.015625)"/>
       </defs>
       <use xlink:href="#DejaVuSans-35"/>
      </g>
     </g>
    </g>
   </g>
   <g id="line2d_37">
    <path d="M 24.726618 -1 
L 31.353049 17.559781 
L 38.065831 35.762931 
L 44.778613 53.364324 
L 51.491395 70.36396 
L 58.204176 86.761838 
L 64.916958 102.55796 
L 71.62974 117.752325 
L 78.342522 132.344933 
L 85.055304 146.335784 
L 91.768086 159.724878 
L 97.362071 170.42278 
L 102.956056 180.702796 
L 108.550041 190.564925 
L 114.144026 200.009167 
L 119.738011 209.035523 
L 125.331996 217.643991 
L 130.925981 225.834573 
L 136.519966 233.607268 
L 142.113951 240.962076 
L 147.707936 247.898997 
L 153.301921 254.418032 
L 157.777109 259.332381 
L 162.252297 263.979282 
L 166.727485 268.358736 
L 171.202673 272.470742 
L 175.677861 276.315301 
L 180.153049 279.892412 
L 184.628237 283.202076 
L 189.103425 286.244292 
L 193.578613 289.01906 
L 198.053801 291.526381 
L 202.528988 293.766255 
L 207.004176 295.738681 
L 211.479364 297.443659 
L 215.954552 298.881189 
L 220.42974 300.051273 
L 224.904928 300.953908 
L 229.380116 301.589096 
L 233.855304 301.956836 
L 238.330492 302.057129 
L 242.80568 301.889975 
L 247.280868 301.455372 
L 251.756056 300.753322 
L 256.231244 299.783825 
L 260.706432 298.54688 
L 265.18162 297.042487 
L 269.656808 295.270647 
L 274.131996 293.23136 
L 278.607184 290.924624 
L 283.082372 288.350442 
L 287.55756 285.508811 
L 292.032748 282.399733 
L 296.507936 279.023208 
L 300.983124 275.379235 
L 305.458312 271.467814 
L 309.9335 267.288946 
L 314.408688 262.84263 
L 318.883876 258.128867 
L 323.359064 253.147656 
L 328.953049 246.545044 
L 334.547034 239.524545 
L 340.141019 232.08616 
L 345.735004 224.229888 
L 351.328988 215.955728 
L 356.922973 207.263683 
L 362.516958 198.15375 
L 368.110943 188.62593 
L 373.704928 178.680224 
L 379.298913 168.316631 
L 384.892898 157.535151 
L 390.486883 146.335784 
L 397.199665 132.344933 
L 403.912447 117.752325 
L 410.625229 102.55796 
L 417.338011 86.761838 
L 424.050793 70.36396 
L 430.763575 53.364324 
L 437.476357 35.762931 
L 444.189139 17.559781 
L 450.815569 -1 
L 450.815569 -1 
" clip-path="url(#p56886c794c)" style="fill: none; stroke: #1d4ed8; stroke-width: 3; stroke-linecap: square"/>
   </g>
   <g id="line2d_38">
    <path d="M 190.977323 357.718125 
L 460.971094 156.529219 
L 460.971094 156.529219 
" clip-path="url(#p56886c794c)" style="fill: none; stroke-dasharray: 7.4,3.2; stroke-dashoffset: 0; stroke: #10b981; stroke-width: 2"/>
   </g>
   <g id="patch_3">
    <path d="M 237.771094 343.639219 
L 237.771094 10.999219 
" style="fill: none; stroke: #cbd5e1; stroke-width: 0.8; stroke-linejoin: miter; stroke-linecap: square"/>
   </g>
   <g id="patch_4">
    <path d="M 460.971094 343.639219 
L 460.971094 10.999219 
" style="fill: none"/>
   </g>
   <g id="patch_5">
    <path d="M 14.571094 218.899219 
L 460.971094 218.899219 
" style="fill: none; stroke: #cbd5e1; stroke-width: 0.8; stroke-linejoin: miter; stroke-linecap: square"/>
   </g>
   <g id="patch_6">
    <path d="M 14.571094 10.999219 
L 460.971094 10.999219 
" style="fill: none"/>
   </g>
   <g id="text_19">
    <!-- $f(x) = x^2/2 - 2$ -->
    <g style="fill: #60a5fa" transform="translate(321.471094 114.949219) scale(0.14 -0.14)">
     <defs>
      <path id="DejaVuSans-Oblique-66" d="M 3059 4863 
L 2969 4384 
L 2419 4384 
Q 2106 4384 1964 4261 
Q 1822 4138 1753 3809 
L 1691 3500 
L 2638 3500 
L 2553 3053 
L 1606 3053 
L 1013 0 
L 434 0 
L 1031 3053 
L 481 3053 
L 563 3500 
L 1113 3500 
L 1159 3744 
Q 1278 4363 1576 4613 
Q 1875 4863 2516 4863 
L 3059 4863 
z
" transform="scale(0.015625)"/>
      <path id="DejaVuSans-28" d="M 1984 4856 
Q 1566 4138 1362 3434 
Q 1159 2731 1159 2009 
Q 1159 1288 1364 580 
Q 1569 -128 1984 -844 
L 1484 -844 
Q 1016 -109 783 600 
Q 550 1309 550 2009 
Q 550 2706 781 3412 
Q 1013 4119 1484 4856 
L 1984 4856 
z
" transform="scale(0.015625)"/>
      <path id="DejaVuSans-Oblique-78" d="M 3841 3500 
L 2234 1784 
L 3219 0 
L 2559 0 
L 1819 1388 
L 531 0 
L -166 0 
L 1556 1844 
L 641 3500 
L 1300 3500 
L 1972 2234 
L 3144 3500 
L 3841 3500 
z
" transform="scale(0.015625)"/>
      <path id="DejaVuSans-29" d="M 513 4856 
L 1013 4856 
Q 1481 4119 1714 3412 
Q 1947 2706 1947 2009 
Q 1947 1309 1714 600 
Q 1481 -109 1013 -844 
L 513 -844 
Q 928 -128 1133 580 
Q 1338 1288 1338 2009 
Q 1338 2731 1133 3434 
Q 928 4138 513 4856 
z
" transform="scale(0.015625)"/>
      <path id="DejaVuSans-3d" d="M 678 2906 
L 4684 2906 
L 4684 2381 
L 678 2381 
L 678 2906 
z
M 678 1631 
L 4684 1631 
L 4684 1100 
L 678 1100 
L 678 1631 
z
" transform="scale(0.015625)"/>
      <path id="DejaVuSans-2f" d="M 1625 4666 
L 2156 4666 
L 531 -594 
L 0 -594 
L 1625 4666 
z
" transform="scale(0.015625)"/>
     </defs>
     <use xlink:href="#DejaVuSans-Oblique-66" transform="translate(0 0.765625)"/>
     <use xlink:href="#DejaVuSans-28" transform="translate(35.205078 0.765625)"/>
     <use xlink:href="#DejaVuSans-Oblique-78" transform="translate(74.21875 0.765625)"/>
     <use xlink:href="#DejaVuSans-29" transform="translate(133.398438 0.765625)"/>
     <use xlink:href="#DejaVuSans-3d" transform="translate(191.894531 0.765625)"/>
     <use xlink:href="#DejaVuSans-Oblique-78" transform="translate(295.166016 0.765625)"/>
     <use xlink:href="#DejaVuSans-32" transform="translate(358.811849 39.046875) scale(0.7)"/>
     <use xlink:href="#DejaVuSans-2f" transform="translate(406.082357 0.765625)"/>
     <use xlink:href="#DejaVuSans-32" transform="translate(436.148763 0.765625)"/>
     <use xlink:href="#DejaVuSans-2212" transform="translate(519.254232 0.765625)"/>
     <use xlink:href="#DejaVuSans-32" transform="translate(622.525716 0.765625)"/>
    </g>
   </g>
   <g id="text_20">
    <!-- $m = f\'(1) = 1$ -->
    <g style="fill: #34d399" transform="translate(42.471094 302.059219) scale(0.14 -0.14)">
     <defs>
      <path id="DejaVuSans-Oblique-6d" d="M 5747 2113 
L 5338 0 
L 4763 0 
L 5166 2094 
Q 5191 2228 5203 2325 
Q 5216 2422 5216 2491 
Q 5216 2772 5059 2928 
Q 4903 3084 4622 3084 
Q 4203 3084 3875 2770 
Q 3547 2456 3450 1953 
L 3066 0 
L 2491 0 
L 2900 2094 
Q 2925 2209 2937 2307 
Q 2950 2406 2950 2484 
Q 2950 2769 2794 2926 
Q 2638 3084 2363 3084 
Q 1938 3084 1609 2770 
Q 1281 2456 1184 1953 
L 800 0 
L 225 0 
L 909 3500 
L 1484 3500 
L 1375 2956 
Q 1609 3263 1923 3423 
Q 2238 3584 2597 3584 
Q 2978 3584 3223 3384 
Q 3469 3184 3519 2828 
Q 3781 3197 4126 3390 
Q 4472 3584 4856 3584 
Q 5306 3584 5551 3325 
Q 5797 3066 5797 2591 
Q 5797 2488 5784 2364 
Q 5772 2241 5747 2113 
z
" transform="scale(0.015625)"/>
      <path id="DejaVuSans-301" d="M -1172 5119 
L -550 5119 
L -1569 3944 
L -2047 3944 
L -1172 5119 
z
M -1600 3584 
L -1600 3584 
z
" transform="scale(0.015625)"/>
     </defs>
     <use xlink:href="#DejaVuSans-Oblique-6d" transform="translate(0 0.640625)"/>
     <use xlink:href="#DejaVuSans-3d" transform="translate(116.894531 0.640625)"/>
     <use xlink:href="#DejaVuSans-Oblique-66" transform="translate(220.166016 0.640625)"/>
     <use xlink:href="#DejaVuSans-301" transform="translate(289.957031 33.015625)"/>
     <use xlink:href="#DejaVuSans-28" transform="translate(255.371094 0.640625)"/>
     <use xlink:href="#DejaVuSans-31" transform="translate(294.384766 0.640625)"/>
     <use xlink:href="#DejaVuSans-29" transform="translate(358.007812 0.640625)"/>
     <use xlink:href="#DejaVuSans-3d" transform="translate(416.503906 0.640625)"/>
     <use xlink:href="#DejaVuSans-31" transform="translate(519.775391 0.640625)"/>
    </g>
   </g>
   <g id="PathCollection_1">
    <defs>
     <path id="mf03e762cf3" d="M 0 4.472136 
C 1.186024 4.472136 2.323632 4.000923 3.162278 3.162278 
C 4.000923 2.323632 4.472136 1.186024 4.472136 0 
C 4.472136 -1.186024 4.000923 -2.323632 3.162278 -3.162278 
C 2.323632 -4.000923 1.186024 -4.472136 0 -4.472136 
C -1.186024 -4.472136 -2.323632 -4.000923 -3.162278 -3.162278 
C -4.000923 -2.323632 -4.472136 -1.186024 -4.472136 0 
C -4.472136 1.186024 -4.000923 2.323632 -3.162278 3.162278 
C -2.323632 4.000923 -1.186024 4.472136 0 4.472136 
z
" style="stroke: #ef4444"/>
    </defs>
    <g clip-path="url(#p56886c794c)">
     <use xlink:href="#mf03e762cf3" x="293.571094" y="281.269219" style="fill: #ef4444; stroke: #ef4444"/>
    </g>
   </g>
  </g>
 </g>
 <defs>
  <clipPath id="p56886c794c">
   <rect x="14.571094" y="10.999219" width="446.4" height="332.64"/>
  </clipPath>
 </defs>
</svg>
